<?xml version="1.0" encoding="iso-8859-1"?>
<!-- Generator: Adobe Illustrator 19.0.0, SVG Export Plug-In . SVG Version: 6.00 Build 0)  -->
<svg version="1.1" id="Capa_1" xmlns="http://www.w3.org/2000/svg" xmlns:xlink="http://www.w3.org/1999/xlink" x="0px" y="0px"
	 width="350" height="500" fill="#ececec" viewBox="0 0 512 512" style="enable-background:new 0 0 512 512;" xml:space="preserve">
<g>
	<g>
		<path d="M341,90.34h-20V167c0,8.28-6.72,15-15,15c-8.28,0-15-6.72-15-15V90.34H171.084c-0.028,0-0.056-0.002-0.084-0.002
			c-46.869,0-85,38.131-85,85v120c0,8.284,6.716,15,15,15h139.959c0.014,0,0.027,0.002,0.041,0.002V497c0,8.284,6.716,15,15,15
			s15-6.716,15-15V310.34h140c8.28,0,15-6.72,15-15v-120C426,128.47,387.87,90.34,341,90.34z M225.999,280.338H116v-105
			c0-30.318,24.658-54.984,54.973-54.999c0.009,0,0.018,0.001,0.027,0.001c14.217,0,27.19,5.421,36.962,14.304
			c6.398,5.817,11.416,13.122,14.519,21.357c0.056,0.15,0.121,0.295,0.176,0.446c0.076,0.207,0.14,0.42,0.213,0.629
			c2.019,5.719,3.129,11.863,3.129,18.264V280.338z"/>
	</g>
</g>
<g>
	<g>
		<path d="M191,160.338h-40c-8.284,0-15,6.716-15,15s6.716,15,15,15h40c8.284,0,15-6.716,15-15S199.284,160.338,191,160.338z"/>
	</g>
</g>
<g>
	<g>
		<path d="M388,0h-82c-8.284,0-15,6.716-15,15v52v23.34h30V82h67c8.284,0,15-6.716,15-15V15C403,6.716,396.284,0,388,0z"/>
	</g>
</g>
<g>
</g>
<g>
</g>
<g>
</g>
<g>
</g>
<g>
</g>
<g>
</g>
<g>
</g>
<g>
</g>
<g>
</g>
<g>
</g>
<g>
</g>
<g>
</g>
<g>
</g>
<g>
</g>
<g>
</g>
</svg>
